<svg width="78" height="80" viewBox="0 0 78 80" fill="none" xmlns="http://www.w3.org/2000/svg">
<g clip-path="url(#clip0_1239_111)">
<path fill-rule="evenodd" clip-rule="evenodd" d="M24.0068 3.04482C28.725 1.03463 33.7819 0 38.8889 0C43.9958 0 49.0528 1.03463 53.771 3.04482C58.4892 5.05501 62.7763 8.00138 66.3875 11.7157C69.9986 15.4301 72.8632 19.8396 74.8175 24.6927C76.7719 29.5457 77.7778 34.7471 77.7778 40C77.7778 50.6087 73.6806 60.7828 66.3875 68.2843C59.0944 75.7857 49.2029 80 38.8889 80C33.7819 80 28.725 78.9654 24.0068 76.9552C19.2885 74.945 15.0015 71.9986 11.3903 68.2843C4.09721 60.7828 0 50.6087 0 40C0 29.3913 4.09721 19.2172 11.3903 11.7157C15.0015 8.00138 19.2885 5.05501 24.0068 3.04482ZM39.2361 62.1429C50.9338 62.1429 60.4167 52.3891 60.4167 40.3571C60.4167 28.3252 50.9338 18.5714 39.2361 18.5714C27.5384 18.5714 18.0556 28.3252 18.0556 40.3571C18.0556 52.3891 27.5384 62.1429 39.2361 62.1429Z" fill="#3F2AFF"/>
<g clip-path="url(#clip1_1239_111)">
<path d="M38.8869 43.1129V33.8516C38.6316 33.8758 38.3792 33.9168 38.1225 33.929H30.771C30.3638 33.929 30.0332 34.2689 30.0332 34.6878V35.4467H27.8198C27.4126 35.4467 27.082 35.7867 27.082 36.2056V40.7589C27.082 41.1778 27.4126 41.5178 27.8198 41.5178H30.0332V42.2767C30.0332 42.6956 30.3638 43.0355 30.771 43.0355H31.2181L34.1841 51.1677C34.3656 51.6549 34.7714 52.0086 35.2702 52.1118C35.369 52.133 35.4679 52.1436 35.5653 52.1436C35.9593 52.1436 36.3341 51.9828 36.6026 51.6944L38.3748 49.8867C38.8278 49.4208 38.9356 48.6938 38.6463 48.1307L36.1703 43.0355H38.1299C38.3837 43.0477 38.6345 43.0887 38.8869 43.1129Z" fill="#212133"/>
<path d="M50.5715 28.2247C50.5567 28.1989 50.5435 28.1777 50.5243 28.1534C50.4431 28.0471 50.3413 27.9606 50.2159 27.9105C50.2115 27.909 50.2085 27.903 50.2041 27.9014C50.1893 27.8969 50.176 27.9045 50.1613 27.8999C50.0949 27.8802 50.0285 27.8574 49.9547 27.8574C49.9045 27.8574 49.8603 27.8772 49.8116 27.8878C49.7835 27.8938 49.757 27.8954 49.7289 27.9045C49.602 27.947 49.4928 28.0198 49.4058 28.12C49.3999 28.1261 49.391 28.1276 49.3851 28.1337C47.0847 31.0068 43.8767 32.9283 40.3633 33.6325V43.3325C43.8767 44.0368 47.0847 45.9567 49.3851 48.8299C49.391 48.8375 49.4013 48.8405 49.4087 48.8496C49.4604 48.9088 49.5238 48.9558 49.5917 48.9953C49.6138 49.009 49.6315 49.0287 49.6537 49.0393C49.7466 49.0803 49.847 49.1061 49.9547 49.1061C50.0388 49.1061 50.1214 49.0909 50.2041 49.0621C50.2085 49.0606 50.2115 49.0545 50.2159 49.053C50.3413 49.0029 50.4431 48.9179 50.5243 48.8101C50.542 48.7859 50.5553 48.7646 50.5715 48.7388C50.6423 48.6219 50.6925 48.4929 50.6925 48.3472V28.6163C50.6925 28.4706 50.6423 28.3416 50.5715 28.2247Z" fill="#212133"/>
</g>
</g>
<defs>
<clipPath id="clip0_1239_111">
<rect width="77.7778" height="80" fill="white"/>
</clipPath>
<clipPath id="clip1_1239_111">
<rect width="23.6111" height="24.2857" fill="white" transform="translate(27.082 27.8574)"/>
</clipPath>
</defs>
</svg>
