<svg width="80" height="80" viewBox="0 0 80 80" fill="none" xmlns="http://www.w3.org/2000/svg">
<g clip-path="url(#clip0_1239_124)">
<g clip-path="url(#clip1_1239_124)">
<path d="M37.9102 43.3679C37.9102 43.6778 38.1614 43.9291 38.4714 43.9291H39.1897C39.0677 43.5683 39.0237 43.1857 39.0607 42.8066H38.4714C38.1614 42.8066 37.9102 43.0579 37.9102 43.3679V43.3679Z" fill="#212133"/>
<path d="M42.351 24.3261C41.9141 24.2329 41.4581 24.3172 41.0834 24.5604C40.7087 24.8035 40.4459 25.1856 40.353 25.6225L38.7367 35.9266C38.6641 36.3187 38.3279 36.6072 37.9293 36.6194C37.5306 36.6315 37.1775 36.3641 37.0811 35.9771L35.1 26.8628C35.0116 26.2535 34.5976 25.7409 34.0205 25.5263C33.4434 25.3117 32.7951 25.4293 32.3301 25.8329C31.8651 26.2365 31.6575 26.8617 31.7887 27.4633L33.6688 37.7562C33.8139 38.5399 33.8043 39.3445 33.6408 40.1246C34.2147 39.5581 34.828 39.033 35.476 38.5531C36.1502 38.0389 36.974 37.759 37.8219 37.7562H41.5709L43.6474 26.3297C43.7422 25.892 43.6588 25.4345 43.4155 25.0585C43.1722 24.6825 42.7891 24.4189 42.351 24.3261V24.3261Z" fill="#212133"/>
<path d="M43.1216 45.1178C42.8287 45.33 42.4969 45.4825 42.1451 45.5668C42.2213 45.6891 42.2888 45.8166 42.3471 45.9484C42.4226 46.1213 42.4061 46.3206 42.3033 46.4787C42.2005 46.6369 42.0251 46.7329 41.8364 46.7341C41.6146 46.7327 41.4144 46.6007 41.3257 46.3974C40.9675 45.5767 40.1559 45.0473 39.2604 45.0504H38.4691C37.5392 45.0504 36.7854 44.2966 36.7854 43.3668C36.7854 42.4369 37.5392 41.6831 38.4691 41.6831H40.1527C41.3926 41.6831 42.3976 40.678 42.3976 39.4382V38.877H37.8237C37.2165 38.877 36.6257 39.0739 36.14 39.4382C33.94 41.077 31.7344 43.5183 31.7344 46.302C31.7327 47.5563 32.1254 48.7794 32.8568 49.7984L35.663 53.6708C36.0892 54.2623 36.2884 54.9875 36.2242 55.7137H45.765C45.765 54.1872 45.6135 54.5912 48.0828 50.3877C48.7323 49.0748 49.0903 47.637 49.1323 46.1729V43.58L47.8247 45.6622C47.3091 46.551 46.3155 47.0494 45.2948 46.9312C44.274 46.8131 43.4206 46.1009 43.1216 45.1178V45.1178Z" fill="#212133"/>
<path d="M40.1811 42.806C40.0782 43.2767 40.222 43.7674 40.5627 44.1081C40.9034 44.4487 41.3941 44.5926 41.8648 44.4897C42.6785 44.3101 42.9872 43.6759 43.4081 42.9575C45.6979 39.2983 45.6137 39.4443 45.653 39.332C46.1684 38.6081 46.0001 37.6036 45.277 37.0871C44.9129 36.8835 44.4824 36.8342 44.0817 36.9502C43.681 37.0662 43.3434 37.3378 43.1444 37.7045L42.9928 37.9458C43.315 38.1471 43.5135 38.4976 43.5204 38.8774V39.4387C43.5204 41.2875 42.0299 42.7906 40.1811 42.806Z" fill="#212133"/>
<path d="M49.0221 38.8781C48.2933 38.4629 47.366 38.7135 46.9456 39.4393C46.6201 39.9669 47.1701 39.0353 44.3696 43.5587C44.1487 43.9072 44.076 44.3294 44.1675 44.7317C44.3148 45.323 44.8127 45.7613 45.4179 45.8325C46.0231 45.9036 46.6091 45.5926 46.8895 45.0516L49.4711 40.949C49.9189 40.2532 49.7179 39.326 49.0221 38.8781V38.8781Z" fill="#212133"/>
</g>
<path fill-rule="evenodd" clip-rule="evenodd" d="M24.6927 3.04482C29.5457 1.03463 34.7471 0 40 0C45.2529 0 50.4543 1.03463 55.3073 3.04482C60.1604 5.05501 64.5699 8.00138 68.2843 11.7157C71.9986 15.4301 74.945 19.8396 76.9552 24.6927C78.9654 29.5457 80 34.7471 80 40C80 50.6087 75.7857 60.7828 68.2843 68.2843C60.7828 75.7857 50.6087 80 40 80C34.7471 80 29.5457 78.9654 24.6927 76.9552C19.8396 74.945 15.4301 71.9986 11.7157 68.2843C4.21427 60.7828 0 50.6087 0 40C0 29.3913 4.21427 19.2172 11.7157 11.7157C15.4301 8.00138 19.8396 5.05501 24.6927 3.04482ZM40.3571 62.1429C52.3891 62.1429 62.1429 52.3891 62.1429 40.3571C62.1429 28.3252 52.3891 18.5714 40.3571 18.5714C28.3252 18.5714 18.5714 28.3252 18.5714 40.3571C18.5714 52.3891 28.3252 62.1429 40.3571 62.1429Z" fill="#3F2AFF"/>
</g>
<defs>
<clipPath id="clip0_1239_124">
<rect width="80" height="80" fill="white"/>
</clipPath>
<clipPath id="clip1_1239_124">
<rect width="31.4286" height="31.4286" fill="white" transform="translate(25 24.2852)"/>
</clipPath>
</defs>
</svg>
