<svg width="24" height="24" viewBox="0 0 24 24" fill="none" xmlns="http://www.w3.org/2000/svg">
<g id="Frame" clip-path="url(#clip0_1239_10)">
<path id="Vector" d="M22.1603 5.6569C21.3969 5.9946 20.5873 6.21638 19.7583 6.3149C20.6321 5.79234 21.2861 4.96992 21.5983 4.0009C20.7783 4.4889 19.8793 4.8309 18.9423 5.0159C18.313 4.34248 17.4787 3.89587 16.5693 3.74549C15.6599 3.59511 14.7263 3.74939 13.9136 4.18436C13.1009 4.61932 12.4547 5.31059 12.0755 6.1507C11.6962 6.9908 11.6051 7.93268 11.8163 8.8299C10.1535 8.74656 8.52668 8.31443 7.04163 7.56157C5.55659 6.80871 4.24647 5.75195 3.19634 4.4599C2.82463 5.09835 2.6293 5.82413 2.63034 6.5629C2.63034 8.0129 3.36834 9.2939 4.49034 10.0439C3.82635 10.023 3.17698 9.84368 2.59634 9.5209V9.5729C2.59654 10.5386 2.93071 11.4745 3.54219 12.222C4.15367 12.9694 5.00483 13.4824 5.95134 13.6739C5.33496 13.8409 4.68865 13.8656 4.06134 13.7459C4.32821 14.5771 4.84835 15.3041 5.54894 15.825C6.24952 16.3459 7.09547 16.6347 7.96834 16.6509C7.10082 17.3322 6.10752 17.8359 5.04522 18.1331C3.98293 18.4303 2.87247 18.5152 1.77734 18.3829C3.68904 19.6123 5.91444 20.265 8.18734 20.2629C15.8803 20.2629 20.0873 13.8899 20.0873 8.3629C20.0873 8.1829 20.0823 8.0009 20.0743 7.8229C20.8932 7.23107 21.5999 6.49792 22.1613 5.6579L22.1603 5.6569Z" fill="white"/>
</g>
<defs>
<clipPath id="clip0_1239_10">
<rect width="24" height="24" fill="white"/>
</clipPath>
</defs>
</svg>
